<svg xmlns="http://www.w3.org/2000/svg" viewBox="0 0 109.71 118.61">
    <defs>
        <style>.cls-1{fill:#496878;}.cls-2{fill:#5da8dc;}.cls-3{fill:#b9d988;}</style>
    </defs>
    <title>icon-team--logo</title>
    <g id="Layer_2" data-name="Layer 2">
        <g id="Слой_1" data-name="Слой 1">
            <rect class="cls-1" x="3.68" y="57.52" width="103.54" height="3.29"
                  transform="translate(-3.84 114.49) rotate(-89.87)"/>
            <rect class="cls-1" x="5.89" y="14.38" width="50.95" height="3.29"
                  transform="translate(-3.57 11.57) rotate(-19.79)"/>
            <rect class="cls-1" x="77.18" y="-9" width="3.29" height="50.05"
                  transform="translate(36.6 84.49) rotate(-69.83)"/>
            <rect class="cls-1" x="6.8" y="44.58" width="31.87" height="3.29"
                  transform="translate(-11.66 7.88) rotate(-15.71)"/>
            <rect class="cls-1" x="86.29" y="31.21" width="3.29" height="30.03"
                  transform="translate(18.39 117.16) rotate(-73.3)"/>
            <rect class="cls-1" x="100.67" y="24.65" width="3.29" height="25.89"/>
            <rect class="cls-1" x="36.43" y="41.91" width="3.29" height="51.77"/>
            <rect class="cls-1" x="71.9" y="41.91" width="3.29" height="51.77"/>
            <rect class="cls-1" x="5.75" y="24.65" width="3.29" height="26.84"/>
            <circle class="cls-2" cx="55.57" cy="7.4" r="5.75"/>
            <path class="cls-1"
                  d="M55.57,14.79A7.4,7.4,0,1,1,63,7.4,7.41,7.41,0,0,1,55.57,14.79Zm0-11.5A4.11,4.11,0,1,0,59.68,7.4,4.11,4.11,0,0,0,55.57,3.29Z"/>
            <circle class="cls-2" cx="55.33" cy="110.94" r="5.75"/>
            <path class="cls-1"
                  d="M55.33,118.61A7.67,7.67,0,1,1,63,110.94,7.68,7.68,0,0,1,55.33,118.61Zm0-11.5a3.84,3.84,0,1,0,3.84,3.84A3.84,3.84,0,0,0,55.33,107.1Z"/>
            <circle class="cls-2" cx="102.31" cy="50.54" r="5.75"/>
            <path class="cls-1"
                  d="M102.31,57.94a7.4,7.4,0,1,1,7.4-7.4A7.41,7.41,0,0,1,102.31,57.94Zm0-11.5a4.11,4.11,0,1,0,4.11,4.11A4.11,4.11,0,0,0,102.31,46.43Z"/>
            <circle class="cls-3" cx="38.08" cy="93.68" r="5.75"/>
            <path class="cls-1"
                  d="M38.08,101.08a7.4,7.4,0,1,1,7.4-7.4A7.41,7.41,0,0,1,38.08,101.08Zm0-11.5a4.11,4.11,0,1,0,4.11,4.11A4.11,4.11,0,0,0,38.08,89.57Z"/>
            <circle class="cls-3" cx="38.08" cy="41.91" r="5.75"/>
            <path class="cls-1"
                  d="M38.08,49.31a7.4,7.4,0,1,1,7.4-7.4A7.41,7.41,0,0,1,38.08,49.31Zm0-11.5a4.11,4.11,0,1,0,4.11,4.11A4.11,4.11,0,0,0,38.08,37.8Z"/>
            <circle class="cls-3" cx="73.55" cy="41.91" r="5.75"/>
            <path class="cls-1"
                  d="M73.55,49.31a7.4,7.4,0,1,1,7.4-7.4A7.41,7.41,0,0,1,73.55,49.31Zm0-11.5a4.11,4.11,0,1,0,4.11,4.11A4.11,4.11,0,0,0,73.55,37.8Z"/>
            <circle class="cls-3" cx="73.55" cy="93.68" r="5.75"/>
            <path class="cls-1"
                  d="M73.55,101.08a7.4,7.4,0,1,1,7.4-7.4A7.41,7.41,0,0,1,73.55,101.08Zm0-11.5a4.11,4.11,0,1,0,4.11,4.11A4.11,4.11,0,0,0,73.55,89.57Z"/>
            <circle class="cls-3" cx="102.31" cy="24.65" r="5.75"/>
            <path class="cls-1"
                  d="M102.31,32.05a7.4,7.4,0,1,1,7.4-7.4A7.41,7.41,0,0,1,102.31,32.05Zm0-11.5a4.11,4.11,0,1,0,4.11,4.11A4.11,4.11,0,0,0,102.31,20.55Z"/>
            <circle class="cls-3" cx="7.4" cy="24.65" r="5.75"/>
            <path class="cls-1"
                  d="M7.4,32.05a7.4,7.4,0,1,1,7.4-7.4A7.41,7.41,0,0,1,7.4,32.05Zm0-11.5a4.11,4.11,0,1,0,4.11,4.11A4.11,4.11,0,0,0,7.4,20.55Z"/>
            <circle class="cls-2" cx="7.4" cy="50.54" r="5.75"/>
            <path class="cls-1"
                  d="M7.4,57.94a7.4,7.4,0,1,1,7.4-7.4A7.41,7.41,0,0,1,7.4,57.94Zm0-11.5a4.11,4.11,0,1,0,4.11,4.11A4.11,4.11,0,0,0,7.4,46.43Z"/>
        </g>
    </g>
</svg>