<svg xmlns="http://www.w3.org/2000/svg" viewBox="0 0 191.32 196.66"><defs><style>.cls-1{fill:#496878;}.cls-2{fill:#5da8dc;}.cls-3{fill:#b9d988;}</style></defs><title>icon-logo</title><g id="Layer_2" data-name="Layer 2"><g id="Слой_1" data-name="Слой 1"><rect class="cls-1" x="43.26" y="57.52" width="103.54" height="3.29" transform="translate(35.66 154.07) rotate(-89.87)"/><rect class="cls-1" x="45.47" y="14.38" width="50.95" height="3.29" transform="translate(-1.24 24.97) rotate(-19.79)"/><rect class="cls-1" x="116.76" y="-9" width="3.29" height="50.05" transform="translate(62.53 121.64) rotate(-69.83)"/><rect class="cls-1" x="46.38" y="44.58" width="31.87" height="3.29" transform="translate(-10.19 18.59) rotate(-15.71)"/><rect class="cls-1" x="125.87" y="31.21" width="3.29" height="30.03" transform="translate(46.6 155.08) rotate(-73.3)"/><rect class="cls-1" x="140.25" y="24.65" width="3.29" height="25.89"/><rect class="cls-1" x="76.01" y="41.91" width="3.29" height="51.77"/><rect class="cls-1" x="111.49" y="41.91" width="3.29" height="51.77"/><rect class="cls-1" x="45.33" y="24.65" width="3.29" height="26.84"/><circle class="cls-2" cx="95.15" cy="7.4" r="5.75"/><path class="cls-1" d="M95.15,14.79a7.4,7.4,0,1,1,7.4-7.4A7.41,7.41,0,0,1,95.15,14.79Zm0-11.5A4.11,4.11,0,1,0,99.26,7.4,4.11,4.11,0,0,0,95.15,3.29Z"/><circle class="cls-2" cx="94.92" cy="110.94" r="5.75"/><path class="cls-1" d="M94.92,118.61a7.67,7.67,0,1,1,7.67-7.67A7.68,7.68,0,0,1,94.92,118.61Zm0-11.5a3.84,3.84,0,1,0,3.84,3.84A3.84,3.84,0,0,0,94.92,107.1Z"/><circle class="cls-2" cx="141.89" cy="50.54" r="5.75"/><path class="cls-1" d="M141.89,57.94a7.4,7.4,0,1,1,7.4-7.4A7.41,7.41,0,0,1,141.89,57.94Zm0-11.5A4.11,4.11,0,1,0,146,50.54,4.11,4.11,0,0,0,141.89,46.43Z"/><circle class="cls-3" cx="77.66" cy="93.68" r="5.75"/><path class="cls-1" d="M77.66,101.08a7.4,7.4,0,1,1,7.4-7.4A7.41,7.41,0,0,1,77.66,101.08Zm0-11.5a4.11,4.11,0,1,0,4.11,4.11A4.11,4.11,0,0,0,77.66,89.57Z"/><circle class="cls-3" cx="77.66" cy="41.91" r="5.75"/><path class="cls-1" d="M77.66,49.31a7.4,7.4,0,1,1,7.4-7.4A7.41,7.41,0,0,1,77.66,49.31Zm0-11.5a4.11,4.11,0,1,0,4.11,4.11A4.11,4.11,0,0,0,77.66,37.8Z"/><circle class="cls-3" cx="113.13" cy="41.91" r="5.75"/><path class="cls-1" d="M113.13,49.31a7.4,7.4,0,1,1,7.4-7.4A7.41,7.41,0,0,1,113.13,49.31Zm0-11.5a4.11,4.11,0,1,0,4.11,4.11A4.11,4.11,0,0,0,113.13,37.8Z"/><circle class="cls-3" cx="113.13" cy="93.68" r="5.75"/><path class="cls-1" d="M113.13,101.08a7.4,7.4,0,1,1,7.4-7.4A7.41,7.41,0,0,1,113.13,101.08Zm0-11.5a4.11,4.11,0,1,0,4.11,4.11A4.11,4.11,0,0,0,113.13,89.57Z"/><circle class="cls-3" cx="141.89" cy="24.65" r="5.75"/><path class="cls-1" d="M141.89,32.05a7.4,7.4,0,1,1,7.4-7.4A7.41,7.41,0,0,1,141.89,32.05Zm0-11.5A4.11,4.11,0,1,0,146,24.65,4.11,4.11,0,0,0,141.89,20.55Z"/><circle class="cls-3" cx="46.98" cy="24.65" r="5.75"/><path class="cls-1" d="M47,32.05a7.4,7.4,0,1,1,7.4-7.4A7.41,7.41,0,0,1,47,32.05Zm0-11.5a4.11,4.11,0,1,0,4.11,4.11A4.11,4.11,0,0,0,47,20.55Z"/><circle class="cls-2" cx="46.98" cy="50.54" r="5.75"/><path class="cls-1" d="M47,57.94a7.4,7.4,0,1,1,7.4-7.4A7.41,7.41,0,0,1,47,57.94Zm0-11.5a4.11,4.11,0,1,0,4.11,4.11A4.11,4.11,0,0,0,47,46.43Z"/><path class="cls-1" d="M24.35,161.72q1.27,0,1.27,2.1V165q0,2.1-1.27,2.1H16v27.53Q16,196,13.45,196H12.22q-2.59,0-2.59-1.37V167.15H1.27Q0,167.15,0,165v-1.22q0-2.1,1.27-2.1Z"/><path class="cls-1" d="M49.48,161.72q1.32,0,1.32,2.1V165q0,2.1-1.32,2.1h-13v8.56H48.11q1.27,0,1.27,2.1V179q0,2.1-1.27,2.1H36.47v9.39H49.53q1.32,0,1.32,2.1v1.22q0,2.1-1.32,2.1H31.88a1.56,1.56,0,0,1-1.76-1.76v-30.7a1.56,1.56,0,0,1,1.76-1.76Z"/><path class="cls-1" d="M69,161.62q2.15,0,2.49.93l11,31.73a2.52,2.52,0,0,1,.15.78q0,1-2.3,1H78.86q-2.2,0-2.44-.93l-2.3-6.7H61.56l-2.25,6.7q-.34.93-2.15.93H55.79q-2.64,0-2.64-1a4.77,4.77,0,0,1,.2-.83l11-31.68q.34-.93,2.49-.93Zm-1,7.43h-.15a23.13,23.13,0,0,1-.73,3l-3.72,10.85h8.9l-3.62-10.85A25.38,25.38,0,0,1,68,169.05Z"/><path class="cls-1" d="M117.83,161.62q2.59,0,2.59,1.37v31.68q0,1.37-2.59,1.37h-1q-2.59,0-2.59-1.37V172.23h-.15L106,186.46a1.8,1.8,0,0,1-1.61.83h-1.61a1.92,1.92,0,0,1-1.66-.83L93,172.13l-.2,0v22.59q0,1.37-2.54,1.37h-1q-2.59,0-2.59-1.37V163q0-1.37,2.59-1.37h2.3q2.05,0,2.69,1.17l8.61,15.11.68,1.56.73-1.51,8.65-15.16q.64-1.17,2.69-1.17Z"/><path class="cls-1" d="M158.51,161.62q2.39,0,2.4.69a2,2,0,0,1-.44,1L150,178.1l12.22,16.28a1.89,1.89,0,0,1,.39.93q0,.73-2.54.73h-2q-2.3,0-2.88-.83l-10.9-15.16h-.19v14.62q0,1.37-2.59,1.37h-1.22q-2.59,0-2.59-1.37V163q0-1.37,2.59-1.37h1.22q2.59,0,2.59,1.37v13.79l.19,0,9.78-14.38q.59-.83,2.84-.83Z"/><path class="cls-1" d="M180.51,161.38a23.61,23.61,0,0,1,6.82,1q3.25,1,3.25,2.3a5,5,0,0,1-1,2.44q-1,1.51-1.69,1.51a6.35,6.35,0,0,1-1-.46,13.88,13.88,0,0,0-2.67-.9,15.43,15.43,0,0,0-3.79-.44q-5,0-7.26,3t-2.27,8.95q0,12.13,9.29,12.13a22.16,22.16,0,0,0,4.69-.44v-7.53h-4.79q-1.27,0-1.27-2.1v-1.27q0-2.1,1.27-2.1h9.44a1.58,1.58,0,0,1,1.76,1.81v13.35a2.28,2.28,0,0,1-1.12,1.91,7.86,7.86,0,0,1-3,1.15,32,32,0,0,1-3.55.51q-1.71.15-3.57.15-7.92,0-11.83-4.25t-3.91-13.15Q164.38,161.38,180.51,161.38Z"/><circle class="cls-1" cx="129.02" cy="192.96" r="3.7"/></g></g></svg>