<?xml version="1.0" standalone="no"?>
<!DOCTYPE svg PUBLIC "-//W3C//DTD SVG 20010904//EN"
 "http://www.w3.org/TR/2001/REC-SVG-20010904/DTD/svg10.dtd">
<svg version="1.0" xmlns="http://www.w3.org/2000/svg"
 width="16.000000pt" height="16.000000pt" viewBox="0 0 16.000000 16.000000"
 preserveAspectRatio="xMidYMid meet">
<metadata>
Created by potrace 1.11, written by Peter Selinger 2001-2013
</metadata>
<g transform="translate(0.000000,16.000000) scale(0.006400,-0.006400)"
fill="#000000" stroke="none">
<path d="M1205 2491 c-11 -5 -32 -21 -48 -36 -23 -24 -32 -45 -52 -120 -1 -5
-163 -68 -359 -139 l-356 -129 -26 26 c-74 74 -202 49 -249 -49 -34 -72 3
-174 74 -204 27 -11 31 -17 32 -54 1 -48 1 -165 0 -184 -1 -7 -11 -16 -24 -21
-35 -14 -85 -76 -93 -117 -25 -134 128 -234 243 -159 32 21 63 74 63 107 0 30
-13 25 242 97 l107 30 35 -35 c18 -18 41 -34 50 -34 9 0 17 -3 17 -7 1 -5 2
-182 3 -395 l1 -388 -26 -11 c-68 -27 -106 -107 -89 -183 27 -119 182 -157
266 -64 68 74 39 209 -55 247 l-26 11 0 391 c0 406 0 408 41 409 36 0 84 96
77 155 -17 160 -235 187 -299 36 -8 -18 -11 -37 -8 -42 8 -13 -24 -25 -195
-74 l-155 -43 -19 25 c-11 14 -35 31 -52 39 l-32 13 -1 121 c0 80 4 120 11
120 22 0 77 46 92 77 8 17 15 44 15 60 l0 30 313 113 c171 62 334 121 361 131
l50 17 28 -28 c16 -16 37 -32 49 -35 20 -7 20 -11 17 -941 -2 -929 -2 -934
-22 -940 -68 -22 -112 -94 -103 -170 13 -116 140 -182 237 -123 42 26 61 51
76 98 22 71 -23 168 -89 191 l-32 12 2 277 c1 152 2 572 3 933 1 640 2 657 21
663 10 4 33 18 49 32 18 14 38 23 48 20 9 -3 98 -35 197 -72 99 -38 216 -81
260 -97 216 -78 215 -77 215 -109 0 -17 7 -43 15 -59 16 -30 74 -80 93 -80 9
0 12 -36 12 -120 l0 -119 -36 -17 c-20 -9 -41 -25 -47 -36 -7 -10 -18 -18 -25
-18 -28 0 -294 85 -297 95 -2 5 -11 32 -20 58 -22 61 -76 99 -141 99 -161 0
-216 -220 -73 -294 l36 -19 0 -387 0 -388 -35 -20 c-91 -49 -113 -171 -45
-247 46 -50 151 -61 208 -20 30 22 65 90 65 126 0 59 -46 127 -97 148 -13 5
-23 16 -24 26 0 10 -1 184 -1 388 0 346 1 370 18 380 9 5 33 24 52 41 l35 30
153 -45 c137 -41 154 -48 154 -68 0 -36 17 -70 51 -102 72 -69 200 -47 243 43
39 82 2 185 -77 215 l-27 11 0 120 c0 97 3 120 14 120 21 0 74 47 91 81 8 15
15 46 15 69 0 138 -162 208 -261 114 l-27 -26 -303 112 c-410 151 -385 139
-392 188 -6 52 -37 95 -81 116 -36 17 -98 20 -131 7z"/>
</g>
</svg>
